<mxfile host="65bd71144e">
    <diagram id="ywjY_AAy3SelQhGb6XCQ" name="Page-1">
        <mxGraphModel dx="1036" dy="585" grid="1" gridSize="10" guides="1" tooltips="1" connect="1" arrows="1" fold="1" page="1" pageScale="1" pageWidth="827" pageHeight="1169" math="0" shadow="0">
            <root>
                <mxCell id="0"/>
                <mxCell id="1" parent="0"/>
                <mxCell id="2" value="丘维声-数学的思维方式" style="swimlane;" vertex="1" parent="1">
                    <mxGeometry x="140" y="80" width="380" height="420" as="geometry"/>
                </mxCell>
                <mxCell id="7" value="" style="edgeStyle=none;html=1;fontColor=#FF3333;" edge="1" parent="2" source="3" target="6">
                    <mxGeometry relative="1" as="geometry"/>
                </mxCell>
                <mxCell id="3" value="观察" style="text;html=1;strokeColor=none;fillColor=none;align=center;verticalAlign=middle;whiteSpace=wrap;rounded=0;" vertex="1" parent="2">
                    <mxGeometry x="40" y="60" width="60" height="30" as="geometry"/>
                </mxCell>
                <mxCell id="4" value="客观现象" style="text;html=1;strokeColor=none;fillColor=none;align=center;verticalAlign=middle;whiteSpace=wrap;rounded=0;" vertex="1" parent="2">
                    <mxGeometry x="100" y="60" width="60" height="30" as="geometry"/>
                </mxCell>
                <mxCell id="13" value="" style="edgeStyle=none;html=1;fontColor=#FF3333;" edge="1" parent="2" source="6" target="12">
                    <mxGeometry relative="1" as="geometry"/>
                </mxCell>
                <mxCell id="6" value="抽象" style="text;html=1;strokeColor=none;fillColor=none;align=center;verticalAlign=middle;whiteSpace=wrap;rounded=0;" vertex="1" parent="2">
                    <mxGeometry x="40" y="130" width="60" height="30" as="geometry"/>
                </mxCell>
                <mxCell id="10" value="提出要研究的问题" style="text;html=1;strokeColor=none;fillColor=none;align=left;verticalAlign=middle;whiteSpace=wrap;rounded=0;fontColor=#FF8000;" vertex="1" parent="2">
                    <mxGeometry x="120" y="80" width="120" height="30" as="geometry"/>
                </mxCell>
                <mxCell id="11" value="抓住主要特征" style="text;html=1;strokeColor=none;fillColor=none;align=left;verticalAlign=middle;whiteSpace=wrap;rounded=0;" vertex="1" parent="2">
                    <mxGeometry x="120" y="100" width="120" height="30" as="geometry"/>
                </mxCell>
                <mxCell id="16" value="" style="edgeStyle=none;html=1;fontColor=#FF3333;" edge="1" parent="2" source="12" target="15">
                    <mxGeometry relative="1" as="geometry"/>
                </mxCell>
                <mxCell id="12" value="探索" style="text;html=1;strokeColor=none;fillColor=none;align=center;verticalAlign=middle;whiteSpace=wrap;rounded=0;" vertex="1" parent="2">
                    <mxGeometry x="40" y="180" width="60" height="30" as="geometry"/>
                </mxCell>
                <mxCell id="14" value="运用直觉，类比，归纳，联想，推理等" style="text;html=1;strokeColor=none;fillColor=none;align=left;verticalAlign=middle;whiteSpace=wrap;rounded=0;" vertex="1" parent="2">
                    <mxGeometry x="100" y="180" width="240" height="30" as="geometry"/>
                </mxCell>
                <mxCell id="19" value="" style="edgeStyle=none;html=1;fontColor=#FF3333;" edge="1" parent="2" source="15" target="18">
                    <mxGeometry relative="1" as="geometry"/>
                </mxCell>
                <mxCell id="15" value="猜测" style="text;html=1;strokeColor=none;fillColor=none;align=center;verticalAlign=middle;whiteSpace=wrap;rounded=0;fontColor=#FF8000;fontStyle=1" vertex="1" parent="2">
                    <mxGeometry x="40" y="230" width="60" height="30" as="geometry"/>
                </mxCell>
                <mxCell id="17" value="可能有的规律" style="text;html=1;strokeColor=none;fillColor=none;align=left;verticalAlign=middle;whiteSpace=wrap;rounded=0;" vertex="1" parent="2">
                    <mxGeometry x="100" y="230" width="240" height="30" as="geometry"/>
                </mxCell>
                <mxCell id="22" value="" style="edgeStyle=none;html=1;fontColor=#FF3333;entryX=0.059;entryY=-0.047;entryDx=0;entryDy=0;entryPerimeter=0;" edge="1" parent="2" source="18" target="21">
                    <mxGeometry relative="1" as="geometry"/>
                </mxCell>
                <mxCell id="18" value="论证" style="text;html=1;strokeColor=none;fillColor=none;align=center;verticalAlign=middle;whiteSpace=wrap;rounded=0;fontColor=#FF8000;fontStyle=1" vertex="1" parent="2">
                    <mxGeometry x="40" y="280" width="60" height="30" as="geometry"/>
                </mxCell>
                <mxCell id="20" value="出概念或建立模型" style="text;html=1;strokeColor=none;fillColor=none;align=left;verticalAlign=middle;whiteSpace=wrap;rounded=0;" vertex="1" parent="2">
                    <mxGeometry x="100" y="130" width="240" height="30" as="geometry"/>
                </mxCell>
                <mxCell id="21" value="揭示事物的内在规律" style="text;html=1;strokeColor=none;fillColor=none;align=left;verticalAlign=middle;whiteSpace=wrap;rounded=0;fontColor=#FF8000;fontStyle=1" vertex="1" parent="2">
                    <mxGeometry x="55" y="330" width="250" height="30" as="geometry"/>
                </mxCell>
                <mxCell id="23" value="深入分析，运用定义、公理、定理或命题，&lt;font color=&quot;#ff3333&quot;&gt;做逻辑推理（难）&lt;/font&gt;" style="text;html=1;strokeColor=none;fillColor=none;align=left;verticalAlign=middle;whiteSpace=wrap;rounded=0;" vertex="1" parent="2">
                    <mxGeometry x="100" y="280" width="240" height="30" as="geometry"/>
                </mxCell>
                <mxCell id="24" value="观察" style="text;html=1;strokeColor=none;fillColor=none;align=center;verticalAlign=middle;whiteSpace=wrap;rounded=0;fontColor=#FF8000;fontStyle=1" vertex="1" parent="2">
                    <mxGeometry x="40" y="60" width="60" height="30" as="geometry"/>
                </mxCell>
                <mxCell id="25" value="抽象" style="text;html=1;strokeColor=none;fillColor=none;align=center;verticalAlign=middle;whiteSpace=wrap;rounded=0;fontColor=#FF8000;" vertex="1" parent="2">
                    <mxGeometry x="40" y="130" width="60" height="30" as="geometry"/>
                </mxCell>
                <mxCell id="26" value="探索" style="text;html=1;strokeColor=none;fillColor=none;align=center;verticalAlign=middle;whiteSpace=wrap;rounded=0;fontColor=#FF8000;" vertex="1" parent="2">
                    <mxGeometry x="40" y="180" width="60" height="30" as="geometry"/>
                </mxCell>
            </root>
        </mxGraphModel>
    </diagram>
</mxfile>